<svg width="40" height="40" viewBox="0 0 40 40" fill="none" xmlns="http://www.w3.org/2000/svg">
<path d="M13.0283 2.5H7.05818C4.58526 2.5 2.58057 4.47521 2.58057 6.91176V12.7941C2.58057 15.2307 4.58526 17.2059 7.05818 17.2059H13.0283C15.5012 17.2059 17.5059 15.2307 17.5059 12.7941V6.91176C17.5059 4.47521 15.5012 2.5 13.0283 2.5Z" fill="#CEC6B4" stroke="#9A8E75"/>
<path d="M32.3833 22.5H26.4132C23.9402 22.5 21.9355 24.4752 21.9355 26.9118V32.7941C21.9355 35.2307 23.9402 37.2059 26.4132 37.2059H32.3833C34.8562 37.2059 36.8609 35.2307 36.8609 32.7941V26.9118C36.8609 24.4752 34.8562 22.5 32.3833 22.5Z" fill="#CEC6B4" stroke="#9A8E75"/>
<path d="M32.3833 2.5H26.4132C23.9402 2.5 21.9355 4.47521 21.9355 6.91176V12.7941C21.9355 15.2307 23.9402 17.2059 26.4132 17.2059H32.3833C34.8562 17.2059 36.8609 15.2307 36.8609 12.7941V6.91176C36.8609 4.47521 34.8562 2.5 32.3833 2.5Z" stroke="#9A8E75"/>
<path d="M17.7081 29.9267C17.7081 25.8658 14.3669 22.5737 10.2454 22.5737C6.12387 22.5737 2.78271 25.8658 2.78271 29.9267C2.78271 33.9876 6.12387 37.2796 10.2454 37.2796C14.3669 37.2796 17.7081 33.9876 17.7081 29.9267Z" stroke="#9A8E75"/>
</svg>
